<svg xmlns="http://www.w3.org/2000/svg" viewBox="0 0 48 48">
  <title>23-programming</title>
  <g id="_23-programming" data-name="23-programming">
    <path d="M23,37H5a5.006,5.006,0,0,1-5-5,1,1,0,0,1,1-1H23v2H2.171A3.006,3.006,0,0,0,5,35H23Z" fill="#bd93f9"/>
    <path d="M4,32H2V3A3,3,0,0,1,5,0H43a3,3,0,0,1,3,3V16H44V3a1,1,0,0,0-1-1H5A1,1,0,0,0,4,3Z" fill="#bd93f9"/>
    <path d="M45.242,48H24.758A2.761,2.761,0,0,1,22,45.242V22.728a2.774,2.774,0,0,1,.808-1.95l4.97-4.97A2.774,2.774,0,0,1,29.728,15H45.242A2.761,2.761,0,0,1,48,17.758V45.242A2.761,2.761,0,0,1,45.242,48ZM29.728,17a.763.763,0,0,0-.536.222l-4.97,4.97a.763.763,0,0,0-.222.536V45.242a.759.759,0,0,0,.758.758H45.242A.759.759,0,0,0,46,45.242V17.758A.759.759,0,0,0,45.242,17Z" fill="#bd93f9"/>
    <path d="M30,24H23V22h6V16h2v7A1,1,0,0,1,30,24Z" fill="#bd93f9"/>
    <rect x="18" y="32" width="5" height="2" fill="#bd93f9"/>
    <path d="M9,32H7V6A1,1,0,0,1,8,5H40a1,1,0,0,1,1,1V16H39V7H9Z" fill="#bd93f9"/>
    <rect x="8" y="11" width="32" height="2" fill="#bd93f9"/>
    <rect x="11" y="8" width="2" height="2" fill="#bd93f9"/>
    <rect x="15" y="8" width="2" height="2" fill="#bd93f9"/>
    <rect x="19" y="8" width="2" height="2" fill="#bd93f9"/>
    <path d="M30.293,37.707l-3-3a1,1,0,0,1,0-1.414l3-3,1.414,1.414L29.414,34l2.293,2.293Z" fill="#bd93f9"/>
    <path d="M39.707,37.707l-1.414-1.414L40.586,34l-2.293-2.293,1.414-1.414,3,3a1,1,0,0,1,0,1.414Z" fill="#bd93f9"/>
    <rect x="31.394" y="33" width="7.211" height="2" transform="translate(-12.704 44.262) rotate(-56.31)" fill="#bd93f9"/>
    <rect x="27" y="40" width="4" height="2" fill="#bd93f9"/>
    <rect x="33" y="40" width="4" height="2" fill="#bd93f9"/>
    <rect x="39" y="40" width="4" height="2" fill="#bd93f9"/>
    <rect x="27" y="26" width="4" height="2" fill="#bd93f9"/>
    <rect x="33" y="26" width="4" height="2" fill="#bd93f9"/>
    <rect x="39" y="26" width="4" height="2" fill="#bd93f9"/>
    <rect x="33" y="21" width="4" height="2" fill="#bd93f9"/>
    <rect x="39" y="21" width="4" height="2" fill="#bd93f9"/>
    <path d="M13,20H11V16a1,1,0,0,1,1-1h4v2H13Z" fill="#bd93f9"/>
    <rect x="11" y="22" width="2" height="2" fill="#bd93f9"/>
  </g>
</svg>
