<?xml version="1.0" encoding="iso-8859-1"?>
<!-- Generator: Adobe Illustrator 21.0.2, SVG Export Plug-In . SVG Version: 6.00 Build 0)  -->
<svg version="1.1" xmlns="http://www.w3.org/2000/svg" xmlns:xlink="http://www.w3.org/1999/xlink" x="0px" y="0px"
	 viewBox="0 0 64 64" style="enable-background:new 0 0 64 64;" xml:space="preserve">
<g id="css">
</g>
<g id="mobile_development">
</g>
<g id="code">
</g>
<g id="hardware_programming">
</g>
<g id="python">
</g>
<g id="development">
</g>
<g id="update">
</g>
<g id="maintenance">
</g>
<g id="peformance_testing">
</g>
<g id="programming">
</g>
<g id="hacker">
</g>
<g id="web_programming">
	<g>
		<path d="M58.4922,5.8721H5.5078C3.022,5.8721,1,7.8945,1,10.3799v43.2402c0,2.4854,2.022,4.5078,4.5078,4.5078h52.9844
			c2.4858,0,4.5078-2.0225,4.5078-4.5078V10.3799C63,7.8945,60.978,5.8721,58.4922,5.8721z M5.5078,7.8721h52.9844
			C59.875,7.8721,61,8.9971,61,10.3799v6.8887H3v-6.8887C3,8.9971,4.125,7.8721,5.5078,7.8721z M58.4922,56.1279H5.5078
			C4.125,56.1279,3,55.0029,3,53.6201V19.2686h58v34.3516C61,55.0029,59.875,56.1279,58.4922,56.1279z" fill="#bd93f9"/>
		<path d="M46.7236,15.7842c1.7744,0,3.2178-1.4414,3.2178-3.2139c0-1.7744-1.4434-3.2178-3.2178-3.2178
			s-3.2178,1.4434-3.2178,3.2178C43.5059,14.3428,44.9492,15.7842,46.7236,15.7842z M46.7236,11.3525
			c0.6714,0,1.2178,0.5459,1.2178,1.2178c0,0.6689-0.5464,1.2139-1.2178,1.2139s-1.2178-0.5449-1.2178-1.2139
			C45.5059,11.8984,46.0522,11.3525,46.7236,11.3525z" fill="#bd93f9"/>
		<path d="M37.9287,15.7842c1.7744,0,3.2178-1.4414,3.2178-3.2139c0-1.7744-1.4434-3.2178-3.2178-3.2178
			c-1.7739,0-3.2173,1.4434-3.2173,3.2178C34.7114,14.3428,36.1548,15.7842,37.9287,15.7842z M37.9287,11.3525
			c0.6714,0,1.2178,0.5459,1.2178,1.2178c0,0.6689-0.5464,1.2139-1.2178,1.2139s-1.2173-0.5449-1.2173-1.2139
			C36.7114,11.8984,37.2573,11.3525,37.9287,11.3525z" fill="#bd93f9"/>
		<path d="M55.5186,15.7842c1.7739,0,3.2173-1.4414,3.2173-3.2139c0-1.7744-1.4434-3.2178-3.2173-3.2178
			c-1.7744,0-3.2178,1.4434-3.2178,3.2178C52.3008,14.3428,53.7441,15.7842,55.5186,15.7842z M55.5186,11.3525
			c0.6714,0,1.2173,0.5459,1.2173,1.2178c0,0.6689-0.5459,1.2139-1.2173,1.2139s-1.2178-0.5449-1.2178-1.2139
			C54.3008,11.8984,54.8472,11.3525,55.5186,11.3525z" fill="#bd93f9"/>
		<path d="M6.9644,23.416c-0.4419,0.3311-0.5313,0.958-0.1997,1.3994l0.0103,0.0137c0.1948,0.2607,0.4907,0.3965,0.791,0.3965
			c0.2095,0,0.4219-0.0664,0.6035-0.2031c0.4419-0.3311,0.5264-0.9648,0.1948-1.4063C8.0337,23.1738,7.4077,23.085,6.9644,23.416z"
			fill="#bd93f9"/>
		<path d="M7.2749,31.4922c0.2095,0,0.4219-0.0664,0.6035-0.2031c0.4419-0.3311,0.5264-0.9648,0.1948-1.4063
			c-0.3311-0.4424-0.9561-0.5313-1.3999-0.2002c-0.4419,0.3311-0.5313,0.958-0.1997,1.3994l0.0103,0.0137
			C6.6787,31.3564,6.9746,31.4922,7.2749,31.4922z" fill="#bd93f9"/>
		<path d="M6.4839,37.3857c0.1948,0.2607,0.4907,0.3965,0.791,0.3965c0.2095,0,0.4219-0.0664,0.6035-0.2031
			c0.4419-0.3311,0.5264-0.9648,0.1948-1.4063c-0.3311-0.4424-0.9561-0.5303-1.3999-0.2002
			c-0.4419,0.3311-0.5313,0.958-0.1997,1.3994L6.4839,37.3857z" fill="#bd93f9"/>
		<path d="M6.4839,43.9219c0.1948,0.2607,0.4907,0.3965,0.791,0.3965c0.2095,0,0.4219-0.0664,0.6035-0.2031
			c0.4419-0.3311,0.5264-0.9648,0.1948-1.4063c-0.3311-0.4424-0.9561-0.5313-1.3999-0.2002
			c-0.4419,0.3311-0.5313,0.958-0.1997,1.3994L6.4839,43.9219z" fill="#bd93f9"/>
	</g>
</g>
</svg>
